<mxfile host="app.diagrams.net" modified="2023-01-21T20:26:51.639Z" agent="5.0 (X11)" etag="aaf9fUnuQ9E-1Ty01-2g" version="20.5.1" type="github">
  <diagram name="Page-1" id="5f0bae14-7c28-e335-631c-24af17079c00">
    <mxGraphModel dx="1551" dy="913" grid="1" gridSize="10" guides="1" tooltips="1" connect="1" arrows="1" fold="1" page="1" pageScale="1" pageWidth="1100" pageHeight="850" background="none" math="0" shadow="0">
      <root>
        <mxCell id="0" />
        <mxCell id="1" parent="0" />
        <mxCell id="BBhAvPuGcrNtLJr1Vsa3-3" value="" style="group;perimeter=rectanglePerimeter;glass=0;" vertex="1" connectable="0" parent="1">
          <mxGeometry x="335" y="40" width="330" height="220" as="geometry" />
        </mxCell>
        <mxCell id="39150e848f15840c-1" value="&lt;b&gt;&lt;font style=&quot;font-size: 14px;&quot;&gt;Darknet3D&lt;/font&gt;&lt;/b&gt;" style="verticalAlign=top;align=left;spacingTop=8;spacingLeft=2;spacingRight=12;shape=cube;size=10;direction=south;fontStyle=4;html=1;rounded=0;shadow=0;comic=0;labelBackgroundColor=none;strokeWidth=1;fontFamily=Verdana;fontSize=12" parent="BBhAvPuGcrNtLJr1Vsa3-3" vertex="1">
          <mxGeometry width="330" height="220" as="geometry" />
        </mxCell>
        <mxCell id="39150e848f15840c-5" value="Darknet3D.cpp" style="shape=component;align=left;spacingLeft=36;rounded=0;shadow=0;comic=0;labelBackgroundColor=none;strokeWidth=1;fontFamily=Verdana;fontSize=12;html=1;" parent="BBhAvPuGcrNtLJr1Vsa3-3" vertex="1">
          <mxGeometry x="170" y="60" width="140" height="60" as="geometry" />
        </mxCell>
        <mxCell id="39150e848f15840c-15" style="edgeStyle=orthogonalEdgeStyle;rounded=0;html=1;labelBackgroundColor=none;startArrow=none;startFill=0;startSize=8;endArrow=open;endFill=0;endSize=16;fontFamily=Verdana;fontSize=12;dashed=1;entryX=0.5;entryY=1;entryDx=0;entryDy=0;" parent="BBhAvPuGcrNtLJr1Vsa3-3" source="39150e848f15840c-5" target="BBhAvPuGcrNtLJr1Vsa3-1" edge="1">
          <mxGeometry relative="1" as="geometry">
            <Array as="points">
              <mxPoint x="210" y="160" />
              <mxPoint x="85" y="160" />
            </Array>
            <mxPoint x="80" y="140" as="targetPoint" />
          </mxGeometry>
        </mxCell>
        <mxCell id="BBhAvPuGcrNtLJr1Vsa3-1" value="Darknet3D.h" style="shape=component;align=left;spacingLeft=36;rounded=0;shadow=0;comic=0;labelBackgroundColor=none;strokeWidth=1;fontFamily=Verdana;fontSize=12;html=1;" vertex="1" parent="BBhAvPuGcrNtLJr1Vsa3-3">
          <mxGeometry x="20" y="60" width="130" height="60" as="geometry" />
        </mxCell>
        <mxCell id="BBhAvPuGcrNtLJr1Vsa3-5" value="" style="group" vertex="1" connectable="0" parent="1">
          <mxGeometry x="370" y="410" width="260" height="150" as="geometry" />
        </mxCell>
        <mxCell id="39150e848f15840c-3" value="&lt;b&gt;&lt;font style=&quot;font-size: 14px;&quot;&gt;Main&lt;/font&gt;&lt;/b&gt;" style="verticalAlign=top;align=left;spacingTop=8;spacingLeft=2;spacingRight=12;shape=cube;size=10;direction=south;fontStyle=4;html=1;rounded=0;shadow=0;comic=0;labelBackgroundColor=none;strokeWidth=1;fontFamily=Verdana;fontSize=12" parent="BBhAvPuGcrNtLJr1Vsa3-5" vertex="1">
          <mxGeometry width="260" height="150" as="geometry" />
        </mxCell>
        <mxCell id="39150e848f15840c-10" value="darknet3d_node" style="shape=component;align=left;spacingLeft=36;rounded=0;shadow=0;comic=0;labelBackgroundColor=none;strokeWidth=1;fontFamily=Verdana;fontSize=12;html=1;" parent="BBhAvPuGcrNtLJr1Vsa3-5" vertex="1">
          <mxGeometry x="70" y="50" width="150" height="60" as="geometry" />
        </mxCell>
        <mxCell id="BBhAvPuGcrNtLJr1Vsa3-4" value="10 Hz" style="ellipse;shape=umlControl;whiteSpace=wrap;html=1;glass=0;fontSize=14;fillColor=none;gradientColor=none;" vertex="1" parent="BBhAvPuGcrNtLJr1Vsa3-5">
          <mxGeometry x="10" y="45" width="50" height="60" as="geometry" />
        </mxCell>
        <mxCell id="BBhAvPuGcrNtLJr1Vsa3-6" value="Use" style="endArrow=open;endSize=12;dashed=1;html=1;rounded=0;fontSize=14;" edge="1" parent="1">
          <mxGeometry width="160" relative="1" as="geometry">
            <mxPoint x="499.5" y="410" as="sourcePoint" />
            <mxPoint x="499.5" y="260" as="targetPoint" />
          </mxGeometry>
        </mxCell>
      </root>
    </mxGraphModel>
  </diagram>
</mxfile>
